<?xml version="1.0" standalone="no"?>
<!DOCTYPE svg PUBLIC "-//W3C//DTD SVG 20010904//EN"
 "http://www.w3.org/TR/2001/REC-SVG-20010904/DTD/svg10.dtd">
<svg version="1.0" xmlns="http://www.w3.org/2000/svg"
 width="736.000000pt" height="736.000000pt" viewBox="0 0 736.000000 736.000000"
 preserveAspectRatio="xMidYMid meet">

<g transform="translate(0.000000,736.000000) scale(0.100000,-0.100000)"
fill="#000000" stroke="none">
<path d="M455 7309 c-106 -60 -239 -148 -277 -184 -15 -14 -30 -25 -33 -25
-13 0 -60 -42 -60 -53 0 -7 -7 -12 -15 -12 -9 0 -28 -10 -43 -21 -26 -21 -27
-26 -27 -105 l0 -84 33 -14 c17 -7 45 -20 61 -27 16 -8 33 -11 39 -7 6 3 7 1
3 -5 -4 -7 -1 -12 6 -12 7 0 91 -81 188 -181 96 -99 184 -182 195 -184 11 -1
19 -8 18 -14 -2 -6 0 -10 5 -10 4 1 16 1 27 0 17 -1 18 -3 5 -11 -10 -7 -11
-10 -2 -11 33 -4 37 -6 35 -17 -2 -6 4 -9 12 -6 9 4 15 0 15 -9 0 -17 110 -72
165 -82 22 -4 42 -10 45 -15 3 -4 32 -5 65 -1 60 6 64 23 6 25 -19 1 -25 6
-23 19 2 9 -1 17 -5 16 -21 -4 -32 3 -38 20 -4 12 -12 18 -21 14 -9 -3 -14 1
-14 13 0 9 -3 14 -7 11 -3 -4 -13 2 -20 13 -8 11 -19 18 -24 15 -5 -4 -9 -2
-9 2 0 5 -16 17 -35 28 -21 11 -34 24 -31 32 3 7 -1 13 -10 13 -8 0 -12 4 -9
10 4 6 -1 7 -11 3 -14 -5 -16 -3 -11 11 4 9 3 15 -1 12 -5 -3 -16 6 -26 19
-10 14 -22 22 -27 19 -5 -3 -9 -1 -9 5 0 18 -44 52 -59 46 -11 -4 -11 -3 -2 9
10 12 8 20 -10 40 -12 14 -26 23 -31 20 -4 -3 -8 2 -8 11 0 9 -11 36 -25 61
-39 70 -42 114 -12 171 14 26 42 82 63 123 22 41 41 77 44 80 3 3 13 23 23 45
10 22 37 68 59 102 45 70 33 66 215 83 95 10 115 9 141 -4 143 -74 302 -116
467 -123 235 -10 334 12 480 107 l60 39 110 -18 c147 -24 224 -35 460 -66 110
-15 210 -31 222 -37 11 -6 25 -8 31 -4 5 3 72 -3 148 -14 509 -70 954 -126
1109 -140 247 -22 534 -40 645 -40 66 0 139 -6 170 -14 30 -8 87 -19 125 -25
175 -26 381 -105 431 -164 96 -114 -111 -320 -440 -436 -110 -39 -220 -63
-441 -96 -93 -13 -208 -31 -255 -40 -195 -33 -494 -70 -625 -77 -134 -7 -768
71 -1240 152 -261 45 -716 53 -849 15 -73 -20 -183 -69 -256 -112 -30 -18 -67
-35 -82 -38 -15 -4 -28 -11 -28 -16 0 -6 -5 -7 -11 -3 -6 3 -25 -1 -42 -9 -18
-8 -51 -23 -74 -33 -27 -13 -37 -22 -30 -27 7 -5 2 -5 -11 -2 -18 5 -28 1 -38
-14 -9 -12 -22 -21 -30 -21 -9 0 -40 -20 -68 -45 -29 -25 -61 -45 -70 -45 -26
0 -73 -27 -80 -46 -4 -12 -15 -15 -37 -12 -16 3 -32 1 -35 -4 -3 -4 0 -8 7 -8
23 0 -24 -40 -75 -64 -28 -13 -71 -41 -96 -63 -25 -22 -64 -50 -87 -61 -23
-12 -44 -31 -48 -42 -3 -11 -17 -23 -31 -26 -26 -7 -204 -174 -204 -191 0 -6
-4 -13 -10 -15 -5 -1 -43 -36 -85 -77 l-75 -74 0 -234 c0 -154 3 -232 10 -228
6 4 10 -8 10 -29 0 -19 -5 -38 -10 -41 -6 -3 -10 -33 -10 -66 0 -60 34 -164
66 -200 8 -8 14 -24 14 -35 0 -11 4 -24 10 -30 21 -21 110 -284 139 -409 45
-200 52 -234 67 -340 32 -227 19 -467 -38 -684 -19 -75 -23 -81 -35 -65 -12
16 -15 17 -23 4 -6 -10 -4 -17 8 -24 9 -5 18 -10 20 -12 4 -3 -108 -237 -117
-244 -3 -3 -17 -22 -31 -42 -13 -20 -29 -34 -34 -31 -5 3 -6 1 -3 -4 4 -6 -2
-22 -14 -34 -18 -22 -20 -22 -15 -4 3 11 1 27 -4 35 -6 9 -9 -470 -10 -1273
l0 -1287 1610 0 1611 0 -23 31 c-41 55 -42 58 -35 66 9 8 264 -74 273 -88 3
-5 41 -9 85 -9 54 0 78 3 74 11 -4 6 -13 8 -21 5 -8 -3 -11 0 -8 8 3 7 -3 16
-13 19 -10 4 -38 22 -63 40 -33 25 -73 40 -155 61 -173 43 -173 43 -181 79 -3
18 -15 49 -25 69 -11 21 -19 39 -19 41 0 7 113 17 319 27 l195 10 30 -29 c29
-27 114 -85 178 -121 63 -35 118 -81 118 -97 0 -10 -13 -42 -29 -71 l-29 -52
447 0 447 0 12 88 c11 79 38 201 47 210 6 6 230 -18 400 -43 158 -23 162 -25
290 -88 72 -36 170 -88 218 -116 87 -50 90 -51 170 -51 l82 0 -25 20 c-38 30
-237 136 -309 166 -109 44 -573 115 -871 134 -91 6 -237 17 -325 25 -323 30
-477 36 -820 34 -308 -2 -578 -15 -655 -33 -111 -25 -830 -77 -930 -67 -74 8
-84 4 105 37 101 18 305 77 344 100 l26 15 -25 -5 c-14 -3 -84 -23 -156 -44
-168 -50 -271 -67 -415 -66 -102 0 -121 3 -165 25 -87 43 -129 166 -85 249 54
103 411 218 648 208 55 -2 89 0 86 5 -9 14 -287 1 -363 -17 -75 -18 -230 -70
-272 -92 -44 -23 -33 -2 30 58 105 99 226 167 426 237 189 67 479 137 666 162
576 76 1076 100 1635 79 171 -7 351 -13 400 -15 116 -3 400 -21 740 -45 305
-23 397 -24 493 -10 179 27 349 51 462 65 69 9 161 22 205 30 44 8 114 19 155
24 41 6 135 19 209 31 73 11 135 20 137 20 2 0 4 289 4 642 l0 641 -51 95
c-83 156 -135 291 -185 482 -21 76 -27 128 -31 260 -5 150 -3 176 21 290 37
181 89 312 202 512 45 79 56 110 31 89 -8 -6 -24 -31 -37 -56 -13 -25 -25 -43
-27 -41 -3 2 5 22 16 45 26 50 25 100 -1 93 -10 -2 -18 1 -18 7 0 6 5 11 10
11 6 0 10 6 10 14 0 14 -50 31 -82 28 -12 -1 -18 5 -18 18 0 11 5 20 10 20 16
0 11 27 -6 34 -35 13 -44 7 -44 -34 0 -22 5 -40 10 -40 6 0 10 -9 10 -20 0
-11 5 -20 10 -20 22 0 8 -28 -17 -33 -33 -6 -53 1 -53 18 0 8 -18 17 -42 21
-27 5 -36 9 -24 12 25 5 46 26 46 46 0 9 5 16 10 16 14 0 12 19 -4 35 -19 19
-26 9 -26 -37 0 -31 -3 -38 -20 -38 -17 0 -20 7 -20 40 0 33 -3 40 -20 40 -13
0 -20 -7 -20 -20 0 -11 -4 -20 -10 -20 -5 0 -10 4 -10 9 0 5 -14 11 -30 15
-28 5 -30 8 -30 51 0 49 5 46 -81 50 l-45 3 -13 -47 c-7 -25 -19 -68 -27 -95
-8 -26 -14 -62 -15 -80 0 -17 -4 -40 -8 -50 -9 -24 -1 -48 -70 208 -45 168
-61 219 -61 190 0 -5 7 -34 15 -64 32 -116 78 -319 94 -417 15 -84 16 -122 9
-210 -10 -114 -18 -147 -18 -70 0 43 -14 159 -41 332 -38 250 -110 560 -195
833 -24 79 -44 152 -44 163 0 40 16 16 32 -49 31 -118 147 -508 147 -493 1 14
-166 628 -174 641 -3 4 -12 59 -20 121 -33 235 -68 430 -105 569 -82 313 -162
505 -313 750 -75 122 -271 374 -364 468 l-52 52 -2513 0 -2513 0 -90 -51z
m365 -1499 c0 -5 -8 -10 -17 -10 -15 0 -16 2 -3 10 19 12 20 12 20 0z m5649
-765 c18 -60 39 -126 46 -145 37 -101 110 -454 140 -680 16 -114 34 -650 22
-650 -7 0 -88 251 -176 545 l-60 201 -6 289 c-3 160 -8 353 -11 430 -3 81 -1
136 4 130 5 -5 23 -59 41 -120z m-1609 35 c0 -5 14 -40 31 -77 59 -129 59
-127 46 -135 -7 -4 -43 -8 -80 -8 -60 0 -68 2 -63 18 5 16 46 203 46 209 0 2
5 3 10 3 6 0 10 -4 10 -10z m-1570 -87 c-11 -17 -11 -17 -6 0 3 10 6 24 7 30
0 9 2 9 5 0 3 -7 0 -20 -6 -30z m230 -40 c-11 -17 -11 -17 -6 0 3 10 6 24 7
30 0 9 2 9 5 0 3 -7 0 -20 -6 -30z m1482 -193 c21 -36 50 -87 64 -115 15 -27
30 -51 35 -53 5 -2 9 -9 9 -17 0 -7 10 -34 22 -61 12 -27 23 -51 23 -54 1 -3
5 -15 9 -28 11 -32 4 -35 -43 -21 -32 10 -43 9 -56 -1 -13 -11 -18 -10 -28 4
-7 9 -21 19 -32 21 -11 2 -22 4 -24 4 -2 1 3 8 10 17 10 13 25 15 71 10 37 -3
57 -2 53 4 -3 6 -17 10 -30 10 -13 0 -26 4 -29 8 -3 5 -33 9 -68 9 -35 0 -52
-2 -38 -4 68 -12 27 -37 -80 -49 -36 -3 -80 -6 -98 -5 -18 0 -53 -4 -78 -9
-53 -12 -60 -10 -45 18 12 22 100 42 184 42 26 0 47 5 47 10 0 10 -119 6 -177
-6 -12 -2 -24 0 -27 4 -3 5 11 53 30 108 20 54 37 104 38 109 2 6 8 23 14 38
7 16 12 32 12 37 0 5 17 12 38 16 20 3 51 10 67 14 67 19 86 10 127 -60z
m-2003 -127 c-17 -44 -67 -136 -92 -167 -20 -25 -26 -27 -45 -17 -12 6 -22 8
-22 2 0 -5 7 -11 15 -15 20 -7 19 -30 -1 -47 -13 -10 -25 -9 -70 6 -66 22 -74
32 -43 53 45 30 80 72 73 84 -5 8 -2 9 9 5 11 -4 17 -1 17 9 0 8 4 13 8 10 5
-3 16 6 26 20 11 13 25 24 32 24 8 0 14 5 14 10 0 6 6 10 13 10 6 0 23 9 37
20 34 27 41 25 29 -7z m-455 -45 c-33 -41 -59 -64 -77 -71 -10 -4 6 15 35 43
58 53 72 63 42 28z m619 16 c3 -4 -3 -24 -13 -45 -11 -21 -20 -44 -20 -51 0
-25 -53 -150 -65 -155 -8 -2 -34 7 -59 22 -39 23 -44 29 -36 46 6 10 16 19 22
19 6 0 8 9 5 22 -6 22 7 48 25 48 6 0 5 -7 -2 -15 -7 -9 -10 -19 -6 -22 9 -9
56 49 49 61 -4 5 -1 6 5 2 6 -3 26 12 44 34 34 41 40 45 51 34z m-2466 -96
c-3 -8 -6 -5 -6 6 -1 11 2 17 5 13 3 -3 4 -12 1 -19z m1863 -54 c31 -36 35
-59 5 -34 -24 20 -58 70 -47 70 6 0 24 -16 42 -36z m-100 22 c0 -3 -4 -8 -10
-11 -5 -3 -10 -1 -10 4 0 6 5 11 10 11 6 0 10 -2 10 -4z m880 -3 c0 -5 -9 -38
-19 -75 -10 -37 -16 -70 -13 -73 3 -3 -3 -11 -13 -19 -11 -8 -18 -26 -18 -45
0 -20 -3 -27 -9 -19 -5 9 -8 7 -8 -7 0 -12 -4 -25 -9 -30 -5 -6 -14 -27 -20
-47 -21 -65 -36 -68 -91 -13 -56 55 -67 81 -38 88 11 3 17 10 13 16 -15 26 20
8 51 -25 42 -44 44 -33 3 21 -26 35 -28 41 -14 51 8 6 15 16 15 22 0 6 8 16
18 21 13 8 14 11 2 11 -8 0 -2 8 15 17 31 17 55 38 55 47 0 8 63 65 73 66 4 0
7 -3 7 -7z m-350 -12 c0 -5 -7 -12 -16 -15 -14 -5 -15 -4 -4 9 14 17 20 19 20
6z m-700 -74 c0 -6 -11 0 -25 13 -14 13 -25 28 -25 33 0 6 11 0 25 -13 14 -13
25 -28 25 -33z m-1603 21 c-3 -8 -6 -5 -6 6 -1 11 2 17 5 13 3 -3 4 -12 1 -19z
m738 -29 c4 -11 11 -16 17 -13 8 5 9 1 4 -12 -14 -37 -19 -77 -9 -71 7 4 9
-13 6 -51 -3 -31 -6 -65 -6 -74 -2 -25 -3 -23 -32 22 -34 53 -50 58 -81 26
-15 -14 -31 -23 -37 -19 -6 4 -7 1 -2 -7 4 -7 3 -15 -2 -19 -13 -8 -78 -140
-87 -176 -13 -51 -14 -21 -5 95 13 158 45 220 164 309 32 24 61 20 70 -10z
m1564 -8 c54 -28 67 -46 53 -76 -7 -14 -16 -25 -22 -25 -11 0 -120 70 -120 77
0 5 42 42 48 43 1 0 20 -9 41 -19z m1181 16 c0 -2 -10 -12 -22 -23 l-23 -19
19 23 c18 21 26 27 26 19z m-3493 -29 c-3 -8 -6 -5 -6 6 -1 11 2 17 5 13 3 -3
4 -12 1 -19z m4720 -23 c-39 -15 -135 -18 -120 -5 13 12 43 18 103 18 l55 1
-38 -14z m-3318 -37 c13 -5 22 -11 19 -13 -7 -7 -172 15 -181 24 -11 11 130 1
162 -11z m2968 -24 c28 -13 57 -24 63 -24 6 0 33 -21 60 -46 45 -42 50 -45 50
-24 0 23 1 23 20 5 24 -22 83 -106 128 -183 18 -32 39 -61 46 -67 20 -16 36
-51 36 -80 0 -40 -74 -185 -118 -234 -21 -23 -52 -49 -69 -59 -73 -40 -163
-106 -168 -123 -4 -11 -16 -18 -33 -18 -15 0 -53 -2 -84 -3 -32 -2 -58 -2 -58
0 0 2 31 34 69 72 52 51 80 91 112 155 40 79 43 95 47 179 8 170 -57 333 -175
441 -18 17 -33 34 -33 38 0 11 48 -2 107 -29z m-4380 -21 c-3 -10 -5 -4 -5 12
0 17 2 24 5 18 2 -7 2 -21 0 -30z m1660 -26 c-39 -41 -56 -65 -84 -119 -28
-53 -28 -55 -28 -243 0 -173 2 -194 21 -235 23 -49 107 -138 167 -178 20 -13
37 -29 37 -33 0 -5 99 -9 220 -9 140 0 220 4 220 10 0 6 -19 10 -42 10 l-41 0
34 27 c103 81 155 185 165 333 7 96 6 93 48 118 28 17 38 19 48 9 18 -17 37
-15 52 6 7 9 20 17 28 17 8 0 27 21 44 47 16 26 78 96 139 155 99 98 134 129
108 96 -6 -7 -40 -51 -76 -98 -76 -98 -145 -172 -237 -253 l-65 -58 60 6 60 7
-30 -21 c-16 -12 -27 -21 -23 -21 3 0 14 -3 24 -7 12 -4 15 -3 10 5 -9 15 -1
15 25 1 15 -7 28 -6 51 5 35 18 58 20 58 7 0 -5 -24 -18 -52 -28 -50 -17 -51
-18 -22 -21 18 -2 88 16 165 42 149 51 169 55 122 25 -38 -24 -43 -49 -11 -49
20 0 21 1 4 13 -16 11 -13 13 26 15 83 4 141 19 132 34 -4 7 -2 8 4 4 7 -4 22
2 34 14 12 11 28 18 34 16 13 -5 157 79 162 95 2 5 10 9 17 9 7 0 36 18 64 40
52 42 68 35 31 -13 -11 -14 -20 -29 -20 -34 0 -5 -11 -20 -25 -33 -14 -13 -25
-27 -25 -32 0 -10 -14 -28 -44 -59 -15 -14 -17 -22 -8 -31 9 -9 9 -15 -1 -27
-10 -12 -9 -14 6 -8 10 4 22 7 26 7 7 0 59 37 98 70 7 5 16 10 21 10 5 0 17 9
27 20 23 25 31 25 38 0 3 -13 -8 -33 -40 -65 -57 -59 -51 -68 10 -14 26 22 44
34 41 25 -12 -32 30 -15 102 41 30 23 44 42 48 68 4 21 13 35 21 35 8 0 28 27
45 60 36 71 58 81 28 13 -29 -64 -36 -220 -15 -319 22 -105 53 -161 130 -238
50 -50 65 -71 55 -77 -8 -5 14 -9 53 -9 l66 0 46 -49 c69 -74 82 -127 82 -336
-1 -154 -3 -180 -29 -280 -16 -60 -37 -126 -47 -145 -11 -19 -19 -38 -19 -43
0 -8 -24 -65 -61 -143 -11 -23 -17 -50 -13 -60 4 -14 3 -15 -4 -6 -7 10 -14 4
-27 -25 -42 -89 -166 -288 -213 -338 -15 -16 -49 -57 -77 -90 -55 -65 -139
-149 -182 -180 -15 -11 -56 -44 -91 -74 -39 -33 -114 -78 -194 -118 -160 -80
-157 -80 -363 26 -392 203 -732 433 -995 672 -184 167 -339 389 -394 565 -17
52 -41 209 -56 358 -5 50 -18 174 -29 276 -54 502 -56 539 -36 579 22 41 99
125 165 178 25 20 39 30 33 23 -27 -29 -14 -42 19 -18 30 22 130 65 155 67 7
1 2 -9 -10 -22z m310 -130 c13 -155 24 -202 48 -193 8 3 40 21 70 40 51 33 54
37 45 61 -6 15 -10 33 -10 41 0 20 42 18 79 -3 27 -16 33 -16 41 -3 5 8 12 11
17 7 4 -5 1 -12 -6 -16 -7 -5 -10 -14 -7 -20 4 -6 4 -25 1 -42 -7 -31 -8 -31
-54 -25 -44 6 -49 4 -103 -42 -58 -48 -68 -70 -45 -94 36 -38 117 -135 117
-141 0 -13 -21 -7 -43 13 -32 30 -106 72 -116 66 -11 -7 -36 -227 -28 -247 3
-8 6 -2 6 14 1 26 3 27 54 27 51 0 52 -1 69 -40 27 -65 15 -70 -161 -70 -145
0 -148 0 -177 26 -16 15 -22 24 -14 21 23 -7 20 54 -3 73 -18 15 -18 16 2 41
29 38 68 43 88 13 8 -13 35 -33 60 -44 37 -16 43 -23 38 -40 -4 -12 -2 -20 5
-20 9 0 10 30 5 113 -9 145 -10 150 -38 135 -40 -20 -127 -93 -127 -104 0 -12
-28 -29 -43 -25 -5 1 -6 -3 -2 -9 3 -5 2 -10 -4 -10 -5 0 -18 -3 -28 -6 -11
-4 -14 -3 -6 3 6 5 16 20 21 34 10 25 9 26 -31 25 -37 -1 -42 2 -45 22 -5 30
21 58 65 73 29 9 37 8 54 -7 11 -10 17 -24 15 -31 -11 -28 11 -9 62 51 28 35
52 66 52 70 0 12 -162 180 -201 209 -21 16 -39 33 -39 39 0 10 82 -50 105 -77
6 -6 17 -14 25 -18 8 -4 37 -23 64 -42 27 -20 56 -34 65 -33 19 4 28 76 30
231 0 53 5 97 9 97 5 0 13 -64 19 -143z m2102 -82 c1 -66 5 -115 9 -110 9 13
69 55 78 55 15 0 59 44 64 63 5 18 14 23 50 25 25 2 47 7 50 10 3 4 19 13 35
20 l30 13 -30 -25 -30 -25 33 -26 c33 -27 40 -53 21 -72 -9 -9 -25 -7 -63 8
-28 10 -56 19 -63 19 -7 0 -39 -22 -71 -49 -72 -60 -72 -72 -1 -159 44 -55 59
-82 43 -82 -3 0 -31 18 -63 39 -77 53 -85 47 -89 -69 -6 -135 -24 -119 -37 33
-4 42 -11 77 -15 77 -4 0 -25 -16 -46 -35 -22 -19 -47 -35 -57 -35 -15 0 -11
10 22 49 70 84 70 86 -15 171 -41 40 -72 75 -70 77 2 2 41 -21 87 -51 96 -62
96 -63 98 49 1 33 4 105 8 160 7 97 8 98 14 45 4 -30 8 -109 8 -175z m-3255
122 c6 -64 5 -77 -6 -67 -9 9 -12 34 -10 82 2 38 5 68 7 66 1 -2 5 -38 9 -81z
m4976 50 c0 -7 20 -73 44 -147 123 -380 175 -590 170 -675 -11 -151 -27 -286
-35 -278 -9 9 -62 208 -90 338 -74 343 -132 800 -99 780 6 -3 10 -12 10 -18z
m-3333 -49 c50 -49 66 -78 43 -78 -12 0 -68 61 -93 101 -28 44 -9 35 50 -23z
m-1747 12 c7 -17 25 -41 41 -54 15 -13 25 -26 22 -29 -3 -3 4 -18 16 -33 12
-15 19 -30 15 -33 -3 -3 -12 3 -20 13 -20 28 -18 6 2 -23 13 -18 18 -20 25
-10 6 10 9 4 9 -18 0 -38 -23 -55 -57 -42 -19 7 -23 5 -23 -12 0 -24 -40 -80
-41 -58 -1 21 -28 -82 -29 -108 0 -42 29 -63 87 -63 l53 0 2 43 c6 138 6 145
-14 139 -12 -3 -17 -10 -13 -22 3 -9 -1 -23 -10 -30 -12 -10 -15 -10 -15 4 0
9 -5 16 -10 16 -17 0 12 38 37 49 36 17 43 14 42 -16 0 -16 1 -84 4 -153 3
-90 3 -101 -2 -40 -7 76 -7 79 -9 28 -1 -32 -6 -58 -12 -58 -12 0 -13 -37 -1
-42 13 -5 24 -108 11 -108 -5 0 -10 -7 -10 -15 0 -19 -9 -19 -34 0 -10 8 -16
21 -13 29 4 10 1 13 -7 10 -8 -3 -17 0 -22 7 -4 8 -3 10 5 5 6 -4 18 -2 26 4
11 9 15 9 15 1 0 -6 7 -11 15 -11 8 0 15 9 15 20 0 11 -4 20 -9 20 -5 0 -16 3
-25 6 -11 4 -16 0 -17 -12 0 -18 -1 -18 -8 0 -6 15 -10 16 -16 7 -6 -11 -9
-11 -16 0 -12 20 -11 37 2 19 8 -12 9 -11 7 5 -2 12 -10 19 -21 17 -9 -2 -18
3 -18 10 -1 7 -2 25 -3 40 -4 62 -28 48 -32 -18 -2 -34 2 -51 16 -66 30 -33
31 -58 4 -85 l-25 -25 -18 24 c-10 12 -19 27 -19 32 0 5 -4 12 -9 15 -21 14
-51 69 -62 113 -6 26 -16 91 -21 144 l-10 97 31 66 c95 200 114 231 143 231 8
0 19 -14 26 -30z m4110 -35 c19 -7 46 -17 60 -23 l25 -11 -23 0 c-29 -1 -162
41 -162 51 0 10 55 0 100 -17z m-2449 -107 c10 -21 19 -43 19 -50 -1 -13 -48
-53 -54 -46 -5 4 -46 183 -46 194 1 14 60 -57 81 -98z m-1093 83 c16 -10 -4
-16 -90 -26 -40 -5 -58 -4 -58 4 0 6 17 11 38 12 20 0 46 4 57 9 26 11 37 11
53 1z m582 -21 c0 -11 -4 -20 -9 -20 -11 0 -22 26 -14 34 12 12 23 5 23 -14z
m2870 -47 c0 -23 -9 -14 -31 30 l-21 42 26 -30 c14 -16 25 -36 26 -42z m-810
53 c0 -3 -4 -8 -10 -11 -5 -3 -10 -1 -10 4 0 6 5 11 10 11 6 0 10 -2 10 -4z
m-2150 -36 c0 -5 -4 -10 -9 -10 -6 0 -13 5 -16 10 -3 6 1 10 9 10 9 0 16 -4
16 -10z m635 -14 c15 -13 24 -29 21 -35 -14 -22 -22 -15 -54 52 -7 13 4 7 33
-17z m1595 14 c0 -5 -5 -10 -11 -10 -5 0 -7 5 -4 10 3 6 8 10 11 10 2 0 4 -4
4 -10z m-1920 -10 c0 -5 -7 -10 -15 -10 -8 0 -15 5 -15 10 0 6 7 10 15 10 8 0
15 -4 15 -10z m1731 -7 c13 -17 13 -17 -6 -3 -11 8 -22 16 -24 17 -2 2 0 3 6
3 6 0 17 -8 24 -17z m367 0 c-4 -22 -22 -20 -26 1 -2 10 3 16 13 16 10 0 15
-7 13 -17z m-2318 -13 c0 -5 -5 -10 -11 -10 -5 0 -7 5 -4 10 3 6 8 10 11 10 2
0 4 -4 4 -10z m200 -40 c0 -5 -4 -10 -10 -10 -5 0 -10 5 -10 10 0 6 5 10 10
10 6 0 10 -4 10 -10z m-415 -20 c3 -5 -1 -10 -9 -10 -9 0 -16 5 -16 10 0 6 4
10 9 10 6 0 13 -4 16 -10z m2170 -30 c-3 -5 -10 -10 -16 -10 -5 0 -9 5 -9 10
0 6 7 10 16 10 8 0 12 -4 9 -10z m465 -26 c0 -17 -22 -14 -28 4 -2 7 3 12 12
12 9 0 16 -7 16 -16z m-2660 -4 c0 -5 -4 -10 -10 -10 -5 0 -10 5 -10 10 0 6 5
10 10 10 6 0 10 -4 10 -10z m-1633 -67 c-3 -10 -5 -4 -5 12 0 17 2 24 5 18 2
-7 2 -21 0 -30z m3283 7 c8 -5 11 -10 5 -10 -5 0 -17 5 -25 10 -8 5 -10 10 -5
10 6 0 17 -5 25 -10z m2543 -165 c26 -140 65 -315 108 -485 33 -136 40 -176
35 -225 -9 -89 -48 -267 -57 -258 -16 17 -70 331 -95 553 -17 150 -30 638 -14
545 4 -27 15 -86 23 -130z m-5087 118 c-13 -24 -15 -25 -16 -7 0 11 5 25 12
32 19 19 21 6 4 -25z m34 -11 c0 -10 -6 -24 -12 -31 -11 -10 -10 -11 5 -6 10
4 17 2 17 -4 0 -16 -25 -13 -40 4 -9 10 -9 15 -1 15 6 0 11 9 11 20 0 11 5 20
10 20 6 0 10 -8 10 -18z m3130 -36 c0 -23 -49 -76 -70 -76 -43 0 -54 50 -17
81 12 10 37 18 55 19 27 0 32 -4 32 -24z m75 -139 c1 -31 18 -47 53 -47 19 0
22 -5 24 -47 0 -27 1 -54 1 -61 -1 -7 4 -11 11 -9 6 2 11 26 11 56 1 72 23 83
81 41 29 -21 51 -89 33 -101 -8 -5 -62 -9 -121 -7 -94 1 -113 5 -148 25 -22
13 -40 26 -40 29 0 3 7 18 15 34 9 17 12 40 9 59 -10 47 1 63 38 59 29 -3 33
-7 33 -31z m-2289 -43 c-11 -7 -22 -12 -25 -9 -2 3 4 12 15 19 10 8 21 12 24
9 3 -2 -4 -11 -14 -19z m-978 -96 c17 -17 15 -33 -3 -18 -8 7 -15 8 -15 3 0
-14 23 -40 40 -45 10 -3 11 -6 3 -11 -14 -9 -67 58 -58 73 8 13 18 13 33 -2z
m87 -47 c3 -5 2 -12 -3 -15 -5 -3 -9 1 -9 9 0 17 3 19 12 6z m75 -11 c0 -5 -2
-10 -4 -10 -3 0 -8 5 -11 10 -3 6 -1 10 4 10 6 0 11 -4 11 -10z m-60 -40 c0
-5 -2 -10 -4 -10 -3 0 -8 5 -11 10 -3 6 -1 10 4 10 6 0 11 -4 11 -10z m-25
-20 c10 -11 16 -20 13 -20 -3 0 -15 9 -28 20 -13 11 -19 20 -13 20 5 0 18 -9
28 -20z m95 -64 c0 -52 -6 -43 -13 18 -3 30 -1 43 4 35 5 -8 9 -32 9 -53z
m-803 -98 c-3 -7 -5 -2 -5 12 0 14 2 19 5 13 2 -7 2 -19 0 -25z m5698 -391
c37 -203 108 -546 126 -614 15 -54 17 -77 9 -90 -8 -15 -9 -14 -4 8 3 17 0 30
-10 38 -13 11 -16 11 -16 0 -1 -28 -17 16 -25 66 -7 43 -9 47 -16 25 l-7 -25
-1 26 c-1 15 -7 32 -15 38 -8 7 -17 27 -20 47 -4 19 -11 32 -15 29 -16 -9 -27
152 -35 500 -3 155 -2 194 4 132 5 -49 16 -130 25 -180z m-5648 201 c-3 -7 -5
-2 -5 12 0 14 2 19 5 13 2 -7 2 -19 0 -25z m5869 -155 c-3 -38 -9 -138 -12
-223 -3 -85 -7 -156 -9 -158 -3 -3 -38 103 -49 152 -4 16 -1 46 7 70 8 22 22
75 32 116 22 98 25 110 32 110 3 0 2 -30 -1 -67z m-3824 -1305 c22 -38 44 -68
48 -68 4 0 10 -8 14 -17 6 -19 28 -54 113 -178 32 -46 47 -78 40 -80 -20 -7
-279 -46 -282 -43 -1 2 2 41 6 88 8 78 5 216 -6 365 -5 60 -5 60 11 30 9 -16
34 -60 56 -97z"/>
<path d="M1396 4371 c-4 -7 -5 -15 -2 -18 9 -9 19 4 14 18 -4 11 -6 11 -12 0z"/>
<path d="M5096 4227 c3 -10 9 -15 12 -12 3 3 0 11 -7 18 -10 9 -11 8 -5 -6z"/>
<path d="M3558 3793 c7 -3 16 -2 19 1 4 3 -2 6 -13 5 -11 0 -14 -3 -6 -6z"/>
<path d="M2120 3543 c1 -15 25 -38 52 -50 20 -9 26 -17 21 -29 -5 -13 -2 -15
15 -10 12 4 30 2 42 -4 32 -17 23 -4 -12 18 -18 11 -52 34 -75 52 -24 17 -43
28 -43 23z"/>
<path d="M3683 2895 c0 -38 2 -53 4 -32 2 20 2 52 0 70 -2 17 -4 1 -4 -38z"/>
<path d="M3247 2319 c7 -7 15 -10 18 -7 3 3 -2 9 -12 12 -14 6 -15 5 -6 -5z"/>
<path d="M4087 2314 c-64 -23 -155 -34 -352 -40 -149 -5 -215 -3 -308 10 -64
9 -125 19 -135 22 -15 5 -15 4 -1 -5 32 -21 211 -41 366 -41 240 1 416 23 473
60 20 13 3 11 -43 -6z"/>
<path d="M2419 3673 c-13 -16 -12 -17 4 -4 9 7 17 15 17 17 0 8 -8 3 -21 -13z"/>
<path d="M1400 4081 c0 -5 5 -13 10 -16 6 -3 10 -2 10 4 0 5 -4 13 -10 16 -5
3 -10 2 -10 -4z"/>
<path d="M1430 3840 c0 -5 5 -10 11 -10 5 0 7 5 4 10 -3 6 -8 10 -11 10 -2 0
-4 -4 -4 -10z"/>
<path d="M1302 3500 c15 -24 22 -25 42 -4 20 19 20 20 -3 20 -12 0 -17 -6 -14
-16 4 -11 1 -11 -10 3 -19 23 -30 22 -15 -3z"/>
<path d="M6024 7344 c3 -9 6 -40 6 -70 0 -41 4 -54 15 -54 8 0 15 -9 15 -20 0
-13 7 -20 20 -20 13 0 20 -7 20 -18 0 -11 8 -29 19 -40 19 -23 41 -29 41 -12
0 15 30 12 30 -2 1 -35 19 26 30 102 7 47 15 100 17 118 l5 32 -112 0 c-98 0
-111 -2 -106 -16z"/>
<path d="M715 6410 c3 -5 11 -10 16 -10 6 0 7 5 4 10 -3 6 -11 10 -16 10 -6 0
-7 -4 -4 -10z"/>
<path d="M6 6291 c-4 -6 -6 -60 -5 -120 1 -84 4 -108 14 -105 7 3 16 -6 20
-23 4 -15 10 -22 12 -15 7 20 25 14 18 -7 -3 -11 1 -24 12 -32 14 -12 16 -12
9 0 -6 9 -5 12 5 9 8 -3 14 -12 14 -21 0 -9 6 -22 14 -29 11 -11 13 -11 6 1
-5 9 -4 12 3 7 7 -4 12 -13 12 -21 0 -7 7 -15 15 -19 8 -3 15 -11 15 -18 1 -7
12 -26 25 -43 43 -52 28 -5 -29 95 -30 52 -52 99 -49 103 3 5 9 3 14 -4 17
-27 9 2 -11 38 -11 21 -20 45 -20 54 0 8 -13 33 -29 54 -16 22 -27 45 -24 52
3 8 0 13 -8 11 -8 -2 -14 5 -14 14 0 22 -11 32 -19 19z"/>
<path d="M6811 4694 c0 -11 3 -14 6 -6 3 7 2 16 -1 19 -3 4 -6 -2 -5 -13z"/>
<path d="M6840 4681 c0 -16 3 -36 6 -45 5 -13 8 -13 20 -1 16 16 19 45 4 45
-5 0 -10 7 -10 15 0 8 -4 15 -10 15 -5 0 -10 -13 -10 -29z"/>
<path d="M160 3330 c0 -5 9 -10 20 -10 11 0 20 5 20 10 0 6 -9 10 -20 10 -11
0 -20 -4 -20 -10z"/>
<path d="M40 3095 c0 -8 9 -15 20 -15 11 0 20 7 20 15 0 8 -9 15 -20 15 -11 0
-20 -7 -20 -15z"/>
<path d="M261 3094 c0 -11 3 -14 6 -6 3 7 2 16 -1 19 -3 4 -6 -2 -5 -13z"/>
<path d="M156 2842 c-3 -6 -1 -14 4 -17 7 -4 9 -21 6 -38 -5 -24 -4 -27 3 -12
12 27 12 31 2 57 -5 13 -10 17 -15 10z"/>
<path d="M116 2693 c-6 -14 -5 -15 5 -6 7 7 10 15 7 18 -3 3 -9 -2 -12 -12z"/>
<path d="M7200 103 c-63 -19 -164 -48 -224 -64 -60 -16 -112 -31 -114 -34 -22
-22 204 32 402 96 33 10 68 19 78 19 10 0 18 5 18 10 0 16 -38 10 -160 -27z"/>
<path d="M6240 35 c0 -9 60 -35 82 -35 17 0 12 5 -21 20 -43 20 -61 24 -61 15z"/>
</g>
</svg>
